<svg xmlns="http://www.w3.org/2000/svg" width="94.643" height="99.421" viewBox="0 0 94.643 99.421"><defs><style>.a{fill:#f2d30c;}</style></defs><g transform="translate(-19 -6.997)"><g transform="translate(19 6.997)"><path class="a" d="M45.793,453.92a3.893,3.893,0,1,0-3.813-3.893,3.893,3.893,0,0,0,3.813,3.893Zm0-4.991a1.1,1.1,0,1,1-1.018,1.1A1.061,1.061,0,0,1,45.793,448.929Z" transform="translate(-37.392 -358.466)"/><path class="a" d="M239.494,253H217.4a1.4,1.4,0,0,0,0,2.795h22.1a1.4,1.4,0,1,0,0-2.795Z" transform="translate(-176.671 -203.888)"/><path class="a" d="M229.966,288H217.4a1.4,1.4,0,0,0,0,2.795h12.569a1.4,1.4,0,0,0,0-2.795Z" transform="translate(-176.671 -231.901)"/><path class="a" d="M98.125,52.152a15.788,15.788,0,0,0-2.265.17V25.537a1.42,1.42,0,0,0-.433-.988L78.215,7.377a1.4,1.4,0,0,0-1-.379H51.661a5.664,5.664,0,0,0-5.71,5.639V39.713L26.679,55.091c-.044.035-.045.073-.084.113A7.753,7.753,0,0,0,24.39,60.7v29.55h-2A3.459,3.459,0,0,0,19,93.711v9.37a3.348,3.348,0,0,0,3.394,3.335H53.016a3.282,3.282,0,0,0,3.316-3.335v-9.37a3.393,3.393,0,0,0-3.316-3.465H52.14V88.316A7.854,7.854,0,0,0,58.728,80.6V74.076H83.922a15.544,15.544,0,1,0,14.2-21.923ZM78.692,11.71l12.35,12.456H81.515a2.862,2.862,0,0,1-2.824-2.929ZM52.938,93.041a.6.6,0,0,1,.6.6v9.383a.6.6,0,0,1-.6.6H22.394a.6.6,0,0,1-.6-.6V93.64a.6.6,0,0,1,.6-.6ZM55.933,80.6a5.112,5.112,0,0,1-5.117,5.043,1.462,1.462,0,0,0-1.472,1.4v3.2H27.185V60.7a4.971,4.971,0,0,1,1.346-3.476l17.42-13.932v11.3L33.825,64.195a1.4,1.4,0,1,0,1.739,2.191L50.056,54.912l.26.258a3.432,3.432,0,0,1,0,4.854l-6.83,6.831a1.4,1.4,0,0,0-.407.907l-.086,1.49q0,.04,0,.081a7.8,7.8,0,0,0,.77,3.334,7.351,7.351,0,0,1-.552,7.161,1.412,1.412,0,0,0-.252.776v3.22a1.4,1.4,0,0,0,2.795,0V81.009a10,10,0,0,0,.521-9.53,5.032,5.032,0,0,1-.5-2.108l.057-.915.128-.083a5.742,5.742,0,0,0,5.7,5.7h4.272Zm27.049-9.323H51.661a2.989,2.989,0,0,1-2.915-2.988V65.535L52.286,62a6.226,6.226,0,0,0,0-8.807l-1.138-1.138a1.4,1.4,0,0,0-1.861-.107l-.545.426V12.637a2.866,2.866,0,0,1,2.915-2.844H75.9V21.237a5.66,5.66,0,0,0,5.619,5.724h11.55V53.007A15.642,15.642,0,0,0,82.6,67.721a16.312,16.312,0,0,0,.383,3.56ZM98.1,80.41a12.732,12.732,0,1,1,12.732-12.732A12.732,12.732,0,0,1,98.1,80.41Z" transform="translate(-19 -6.997)"/><path class="a" d="M395.713,264.243a2.051,2.051,0,0,1,2.049,2.048,1.4,1.4,0,0,0,1.4,1.4,1.377,1.377,0,0,0,1.375-1.4,4.866,4.866,0,0,0-3.469-4.637v-.7a1.4,1.4,0,0,0-2.795,0v.7a4.847,4.847,0,0,0,1.431,9.481,2.048,2.048,0,1,1,.034,4.1h-.048a2.05,2.05,0,0,1-2.023-2.048,1.4,1.4,0,0,0-1.4-1.4,1.417,1.417,0,0,0-1.42,1.4,4.826,4.826,0,0,0,3.424,4.637v.858a1.4,1.4,0,0,0,2.795,0v-.858a4.84,4.84,0,0,0-1.364-9.481,2.049,2.049,0,1,1,.011-4.1Z" transform="translate(-316.611 -209.135)"/><path class="a" d="M231.328,122H203.379A1.446,1.446,0,0,0,202,123.47V130a1.372,1.372,0,0,0,1.379,1.384H204.6v12.161a1.367,1.367,0,0,0,1.344,1.414h22.868a1.365,1.365,0,0,0,1.342-1.414V131.383h1.18A1.4,1.4,0,0,0,232.744,130V123.47A1.477,1.477,0,0,0,231.328,122Zm-3.975,20.163H207.39v-10.78h4.991v5.474a1.46,1.46,0,0,0,2.2,1.2l2.748-1.657,2.828,1.666a1.407,1.407,0,0,0,.714.194,1.588,1.588,0,0,0,.743-.184,1.446,1.446,0,0,0,.754-1.214v-5.474h4.991Zm-12.178-7.786v-2.995h4.392v3.027l-1.482-.846a1.534,1.534,0,0,0-1.508.008Zm14.773-5.789H204.795v-3.793h25.154Z" transform="translate(-165.466 -99.041)"/></g></g></svg>